<svg width="148.801" height="64.701" viewBox="0 0 148.801 64.701" xmlns="http://www.w3.org/2000/svg"><g id="svgGroup" stroke-linecap="round" fill-rule="evenodd" font-size="9pt" stroke="#ff0000" stroke-width="0.25mm" fill="#ff0000" style="stroke:#ff0000;stroke-width:0.25mm;fill:#ff0000"><path d="M 119.501 7.6 L 114.401 19.2 A 25.136 25.136 0 0 0 110.965 17.363 Q 109.077 16.525 106.851 15.85 A 30.464 30.464 0 0 0 98.414 14.503 A 28.706 28.706 0 0 0 98.001 14.5 A 21.105 21.105 0 0 0 92.933 15.073 A 14.049 14.049 0 0 0 85.651 19.35 Q 81.301 24.2 81.301 32.2 A 27.089 27.089 0 0 0 81.611 36.425 Q 81.969 38.691 82.742 40.552 A 13.947 13.947 0 0 0 83.701 42.45 Q 86.101 46.4 90.001 48.25 Q 93.901 50.1 98.301 50.1 A 25.54 25.54 0 0 0 100.135 50.038 Q 101.023 49.974 101.797 49.844 A 13.855 13.855 0 0 0 102.301 49.75 A 20.973 20.973 0 0 0 103.186 49.549 Q 103.982 49.349 104.506 49.133 A 4.435 4.435 0 0 0 104.801 49 L 104.801 39.4 L 94.001 39.4 L 94.001 26.6 L 121.801 26.6 L 121.801 54.8 Q 118.101 59.2 111.201 61.95 Q 104.301 64.7 95.701 64.7 A 41.343 41.343 0 0 1 86.325 63.677 A 33.621 33.621 0 0 1 78.951 61.05 Q 71.601 57.4 67.451 50.1 Q 63.301 42.8 63.301 32 A 42.972 42.972 0 0 1 64.341 22.275 A 29.096 29.096 0 0 1 71.351 8.75 Q 78.651 0.906 92.243 0.175 A 53.257 53.257 0 0 1 95.101 0.1 A 52.773 52.773 0 0 1 101.704 0.492 Q 105.954 1.028 109.451 2.3 A 45.446 45.446 0 0 1 114.353 4.397 Q 116.844 5.651 118.856 7.115 A 26.707 26.707 0 0 1 119.501 7.6 Z M 51.701 5.1 L 47.201 17.7 Q 45.12 16.399 42.136 15.587 A 28.515 28.515 0 0 0 41.201 15.35 Q 37.601 14.5 34.301 14.5 A 20.502 20.502 0 0 0 29.358 15.061 A 13.718 13.718 0 0 0 22.251 19.25 Q 18.103 23.886 18.004 31.619 A 29.684 29.684 0 0 0 18.001 32 A 25.46 25.46 0 0 0 18.499 37.201 Q 19.555 42.257 22.851 45.35 A 16.571 16.571 0 0 0 31.894 49.642 A 22.973 22.973 0 0 0 35.401 49.9 A 25.323 25.323 0 0 0 42.059 49.042 A 23.305 23.305 0 0 0 43.501 48.6 Q 47.301 47.3 50.101 45.4 L 55.301 56.6 Q 51.601 59.4 46.101 61.9 A 24.947 24.947 0 0 1 41.121 63.519 Q 38.612 64.07 35.677 64.276 A 52.411 52.411 0 0 1 32.001 64.4 A 41.944 41.944 0 0 1 23.338 63.544 A 32.524 32.524 0 0 1 15.301 60.75 Q 8.101 57.1 4.051 49.8 Q 0.381 43.184 0.037 33.694 A 55.043 55.043 0 0 1 0.001 31.7 A 44.167 44.167 0 0 1 0.998 22.036 Q 2.495 15.355 6.243 10.42 A 27.028 27.028 0 0 1 7.801 8.55 A 24.766 24.766 0 0 1 19.313 1.536 Q 23.345 0.336 28.211 0.074 A 51.812 51.812 0 0 1 31.001 0 Q 36.401 0 41.751 1.2 Q 47.101 2.4 51.701 5.1 Z M 148.801 64 L 131.801 64 L 131.801 0.4 L 148.801 0.4 L 148.801 64 Z" vector-effect="non-scaling-stroke"/></g></svg>